<svg width="24" height="24" viewBox="0 0 24 24" fill="none" xmlns="http://www.w3.org/2000/svg">
<path d="M17.7364 13.512C17.8125 13.8224 17.8528 14.1406 17.8564 14.4602C17.8696 16.56 16.5364 18.24 14.0884 18.24H5.96486C5.14235 18.2483 4.34833 17.939 3.74816 17.3765C3.148 16.814 2.78796 16.0417 2.74305 15.2204C2.69814 14.399 2.9718 13.5921 3.50705 12.9675C4.0423 12.3429 4.79787 11.9489 5.61638 11.8675C5.63387 10.9068 6.03152 9.99225 6.72217 9.32427C7.41283 8.65629 8.34014 8.28938 9.30086 8.30396C10.9809 8.30396 12.4449 9.34796 12.7211 10.8362H12.7571C12.7091 8.7962 14.1731 7.4762 15.8893 7.4762C16.5957 7.47686 17.2832 7.70406 17.8509 8.12441C18.4186 8.54477 18.8365 9.13611 19.0432 9.81156C19.2499 10.487 19.2345 11.2109 18.9993 11.877C18.7641 12.5431 18.3214 13.1161 17.7364 13.512ZM16.6564 14.4602C16.6444 13.008 15.4684 11.8442 13.8601 11.8442C13.1957 11.8365 12.5323 11.8968 11.8801 12.0242C11.8801 11.9642 11.8681 11.8562 11.8561 11.7362C11.7744 11.1018 11.4606 10.5202 10.9752 10.1036C10.4898 9.68693 9.86736 9.46486 9.2279 9.4802C7.8359 9.4802 6.7319 10.6082 6.7319 12.1082C6.7319 12.3962 6.7319 12.7322 6.7559 12.9722C6.5488 12.9479 6.34043 12.9359 6.1319 12.9362C4.8839 12.9362 3.9479 13.8122 3.93566 15.0242C3.92805 15.2932 3.97521 15.5609 4.07429 15.811C4.17337 16.0612 4.3223 16.2886 4.51201 16.4794C4.70173 16.6703 4.92827 16.8205 5.17787 16.921C5.42746 17.0215 5.69489 17.0703 5.9639 17.0642H14.0884C15.8533 17.064 16.6693 15.8997 16.6564 14.4597V14.4602ZM12.4451 8.13596L10.7411 6.44396L11.5571 5.62796L13.2491 7.33196L12.4451 8.13596ZM17.9891 10.776C17.9995 10.4962 17.9524 10.2173 17.8508 9.95639C17.7492 9.69551 17.5952 9.45821 17.3984 9.25913C17.2016 9.06005 16.966 8.9034 16.7063 8.79885C16.4466 8.6943 16.1683 8.64406 15.8884 8.65124C14.7484 8.65124 13.9084 9.50348 13.8601 10.7275C14.5215 10.69 15.1812 10.8251 15.7745 11.1197C16.3678 11.4142 16.8742 11.858 17.2441 12.4075C17.471 12.1991 17.6539 11.9473 17.7819 11.6671C17.9099 11.3869 17.9806 11.0839 17.9896 10.776H17.9891ZM16.4773 6.47996H15.3013V4.07996H16.4773V6.47996ZM19.3573 8.11196L18.5533 7.30796L20.2453 5.60396L21.0613 6.41996L19.3573 8.11196ZM19.3573 13.44L21.0613 15.132L20.2453 15.948L18.5533 14.244L19.3573 13.44ZM22.5858 10.2V11.352H20.1858V10.2H22.5858Z" fill="#333333"/>
</svg>
