<svg width="167" height="34" viewBox="0 0 167 34" fill="none" xmlns="http://www.w3.org/2000/svg">
<path d="M13.0385 4.16635C12.4677 4.16635 12.0782 4.19344 11.401 4.27017V9.68032C12.0238 9.7074 12.3092 9.73223 12.7259 9.73223C15.0633 9.73223 16.232 8.72333 16.232 6.88384C16.232 5.35807 15.2196 4.16635 13.0385 4.16635ZM13.0385 13.5376C12.4156 13.5376 11.9989 13.5105 11.401 13.4857V19.1554H6.98438V0.363231C8.9322 0.155583 10.6988 0.0517578 12.2843 0.0517578C17.7903 0.0517578 20.7505 2.97689 20.7505 6.8071C20.7528 10.7163 18.0757 13.5376 13.0385 13.5376Z" fill="#222222"/>
<path d="M31.2774 7.79158L33.1482 12.3486H29.3817L31.2774 7.79158ZM31.0169 0.0273438L22.0547 19.1558H26.5483L27.9774 15.7115H34.5502L35.9794 19.1558H40.5771L31.6149 0.0273438H31.0169Z" fill="#222222"/>
<path d="M51.5323 4.16635C50.9616 4.16635 50.572 4.19344 49.897 4.27017V9.68032C50.5199 9.7074 50.8053 9.73223 51.222 9.73223C53.5594 9.73223 54.7281 8.72333 54.7281 6.88384C54.7281 5.35807 53.7134 4.16635 51.5323 4.16635ZM51.5323 13.5376C50.9095 13.5376 50.4927 13.5105 49.897 13.4857V19.1554H45.4805V0.363231C47.4283 0.155583 49.1949 0.0517578 50.7804 0.0517578C56.2864 0.0517578 59.2489 2.97689 59.2489 6.8071C59.2466 10.7163 56.5717 13.5376 51.5323 13.5376Z" fill="#222222"/>
<path d="M64.832 0.180664V19.1556H76.8882V15.1426H69.2509V11.4411H76.2132V7.61086H69.2509V4.21852H76.8882V0.180664H64.832Z" fill="#222222"/>
<path d="M90.0312 3.98609C89.3563 3.98609 88.9395 4.01318 88.3167 4.117V9.34432C88.8874 9.39623 89.2 9.42331 89.7186 9.42331C91.8227 9.42331 93.1749 8.41441 93.1749 6.49818C93.1772 4.91825 91.9292 3.98609 90.0312 3.98609ZM93.9563 19.1557L90.7084 12.9691C90.4479 12.9962 90.2147 12.9962 89.9542 12.9962C89.3064 12.9962 88.9418 12.9691 88.3189 12.9443V19.1557H83.9023V0.361278C85.5127 0.180714 87.2793 0.0498047 89.5148 0.0498047C95.4375 0.0498047 97.7749 2.87111 97.7749 6.34019C97.7749 8.59272 96.5541 10.6105 94.5021 11.8271L98.9708 19.1534L93.9563 19.1557Z" fill="#222222"/>
<path d="M114.163 12.608C114.163 16.7745 112.372 19.4671 107.332 19.4671C105.305 19.4671 103.774 19.0518 102.137 18.1219L103.514 14.4452C104.553 15.093 105.955 15.4541 107.203 15.4541C108.995 15.4541 109.749 14.3414 109.749 12.2175V0.180664H114.166V12.608H114.163Z" fill="#222222"/>
<path d="M126.348 7.79158L128.219 12.3486H124.452L126.348 7.79158ZM126.087 0.0273438L117.125 19.1558H121.619L123.048 15.7115H129.621L131.05 19.1558H135.647L126.685 0.0273438H126.087Z" fill="#222222"/>
<path d="M158.478 0L150.061 10.8474L141.434 0L140.839 0.0519137L139.953 19.1555H144.218L144.399 9.83621L149.724 16.49H150.191L155.463 9.83621L155.699 19.1555H159.984L159.076 0.0519137L158.478 0Z" fill="#222222"/>
<path d="M5.1433 31.7593C5.1433 30.8272 4.56801 30.062 3.3359 29.8408C4.38908 29.5542 4.95305 28.929 4.95305 27.9946C4.95305 26.945 4.09012 26.0219 2.22836 26.0219C1.60098 26.0219 1.05966 26.0738 0.484375 26.1483V33.8155C1.05966 33.8787 1.67572 33.9419 2.3031 33.9419C4.17618 33.9441 5.1433 32.8946 5.1433 31.7593ZM4.34605 28.06C4.34605 28.929 3.6326 29.6309 2.04716 29.6309C1.71875 29.6309 1.3994 29.6309 1.08005 29.6106V26.6313C1.45149 26.5681 1.85691 26.5365 2.27139 26.5365C3.68696 26.532 4.34605 27.1685 4.34605 28.06ZM4.52724 31.73C4.52724 32.6847 3.78209 33.425 2.36652 33.425C1.92939 33.425 1.46282 33.3821 1.08005 33.3302V30.1275C1.40846 30.1072 1.81388 30.1072 2.0902 30.1072C3.71867 30.1049 4.52724 30.7843 4.52724 31.73ZM14.1871 31.0506V26.0987H13.5801V31.0393C13.5801 32.608 12.6538 33.4363 11.2608 33.4363C9.86791 33.4363 8.96194 32.6305 8.96194 31.0393V26.0987H8.36627V31.0506C8.36627 32.9262 9.45116 33.9757 11.2608 33.9757C13.0275 33.9757 14.1871 32.8743 14.1871 31.0506ZM21.7043 31.8677C21.7043 30.7549 20.9909 30.2336 19.6501 29.6309C18.7033 29.1953 18.042 28.7936 18.042 27.9562C18.042 27.1504 18.692 26.5162 19.7339 26.5162C20.3182 26.5162 20.8618 26.7261 21.2559 27.0037L21.5435 26.5049C21.086 26.198 20.4677 25.9745 19.7882 25.9745C18.3953 25.9745 17.4463 26.8751 17.4463 27.9991C17.4463 29.0712 18.1801 29.6219 19.3828 30.1523C20.4904 30.6511 21.0951 31.0416 21.0951 31.9444C21.0951 32.8043 20.4043 33.4611 19.3715 33.4611C18.6694 33.4611 17.9786 33.1858 17.3489 32.7614L17.0613 33.2806C17.7407 33.7252 18.4859 34.0006 19.3171 34.0006C20.6398 33.9961 21.7043 33.1384 21.7043 31.8677ZM25.5411 26.0987H24.9454V33.8697H25.5411V26.0987ZM35.1693 33.9667V26.0987H34.5736V32.5041L29.4232 25.9835L29.285 26.0151V33.8719H29.8694V27.3942L35.0605 33.9893L35.1693 33.9667ZM43.3184 33.8697V33.328H39.5088V30.1907H42.947V29.6603H39.5088V26.6268H43.3184V26.0964H38.9132V33.8674H43.3184V33.8697ZM50.8311 31.8677C50.8311 30.7549 50.1177 30.2336 48.7768 29.6309C47.8301 29.1953 47.1688 28.7936 47.1688 27.9562C47.1688 27.1504 47.8188 26.5162 48.8606 26.5162C49.445 26.5162 49.9886 26.7261 50.3827 27.0037L50.6703 26.5049C50.2128 26.198 49.5967 25.9745 48.915 25.9745C47.5221 25.9745 46.5731 26.8751 46.5731 27.9991C46.5731 29.0712 47.3069 29.6219 48.5096 30.1523C49.6171 30.6511 50.2219 31.0416 50.2219 31.9444C50.2219 32.8043 49.5311 33.4611 48.4983 33.4611C47.7961 33.4611 47.1053 33.1858 46.4757 32.7614L46.188 33.2806C46.8675 33.7252 47.6127 34.0006 48.4439 34.0006C49.7666 33.9961 50.8311 33.1384 50.8311 31.8677ZM58.1151 31.8677C58.1151 30.7549 57.4016 30.2336 56.0608 29.6309C55.1141 29.1953 54.455 28.7936 54.455 27.9562C54.455 27.1504 55.1027 26.5162 56.1469 26.5162C56.7312 26.5162 57.2748 26.7261 57.6689 27.0037L57.9565 26.5049C57.499 26.198 56.8807 25.9745 56.2012 25.9745C54.8083 25.9745 53.8593 26.8751 53.8593 27.9991C53.8593 29.0712 54.5931 29.6219 55.7958 30.1523C56.9034 30.6511 57.5081 31.0416 57.5081 31.9444C57.5081 32.8043 56.8173 33.4611 55.7845 33.4611C55.0824 33.4611 54.3916 33.1858 53.7642 32.7614L53.4765 33.2806C54.1583 33.7252 54.9034 34.0006 55.7324 34.0006C57.0506 33.9961 58.1151 33.1384 58.1151 31.8677ZM70.7442 26.2047L70.6899 26.0987H65.3288V26.6291H69.7975L65.0616 33.7636L65.1046 33.8697H70.6899V33.328H65.9992L70.7442 26.2047ZM79.6635 31.0506V26.0987H79.0587V31.0393C79.0587 32.608 78.1346 33.4363 76.7417 33.4363C75.3488 33.4363 74.4428 32.6305 74.4428 31.0393V26.0987H73.8472V31.0506C73.8472 32.9262 74.9321 33.9757 76.7417 33.9757C78.5061 33.9757 79.6635 32.8743 79.6635 31.0506ZM91.74 33.8697V33.328H87.9327V26.0964H87.337V33.8674H91.74V33.8697ZM98.229 24.7196C98.229 24.4758 98.0251 24.2637 97.7805 24.2637C97.5246 24.2637 97.323 24.4781 97.323 24.7196C97.323 24.9634 97.5268 25.1642 97.7805 25.1642C98.0251 25.1642 98.229 24.9634 98.229 24.7196ZM96.408 24.7196C96.408 24.4758 96.2064 24.2637 95.9618 24.2637C95.7172 24.2637 95.5156 24.4781 95.5156 24.7196C95.5156 24.9634 95.7172 25.1642 95.9618 25.1642C96.2064 25.1642 96.408 24.9634 96.408 24.7196ZM99.067 33.8697V33.328H95.2574V30.1907H98.6933V29.6603H95.2574V26.6268H99.067V26.0964H94.6617V33.8674H99.067V33.8697ZM107.848 26.6291V26.0987H101.955V26.6291H104.605V33.8697H105.212V26.6291H107.848ZM116.201 26.2047L116.147 26.0987H110.786V26.6291H115.254L110.521 33.7658L110.564 33.8719H116.149V33.3302H111.456L116.201 26.2047ZM123.739 33.8697V33.328H119.929V30.1907H123.365V29.6603H119.929V26.6268H123.739V26.0964H119.333V33.8674H123.739V33.8697ZM131.587 31.7593C131.587 30.8272 131.011 30.062 129.779 29.8408C130.832 29.5542 131.396 28.929 131.396 27.9946C131.396 26.945 130.536 26.0219 128.672 26.0219C128.044 26.0219 127.501 26.0738 126.928 26.1483V33.8155C127.503 33.8787 128.119 33.9419 128.746 33.9419C130.617 33.9441 131.587 32.8946 131.587 31.7593ZM130.787 28.06C130.787 28.929 130.074 29.6309 128.488 29.6309C128.16 29.6309 127.84 29.6309 127.521 29.6106V26.6313C127.893 26.5681 128.298 26.5365 128.712 26.5365C130.128 26.532 130.787 27.1685 130.787 28.06ZM130.968 31.73C130.968 32.6847 130.223 33.425 128.808 33.425C128.373 33.425 127.904 33.3821 127.521 33.3302V30.1275C127.849 30.1072 128.255 30.1072 128.531 30.1072C130.16 30.1049 130.968 30.7843 130.968 31.73ZM140.628 31.0506V26.0987H140.021V31.0393C140.021 32.608 139.097 33.4363 137.702 33.4363C136.307 33.4363 135.405 32.6305 135.405 31.0393V26.0987H134.81V31.0506C134.81 32.9262 135.894 33.9757 137.704 33.9757C139.468 33.9757 140.628 32.8743 140.628 31.0506ZM148.721 33.8697V33.328H144.911V30.1907H148.347V29.6603H144.911V26.6268H148.721V26.0964H144.315V33.8674H148.721V33.8697ZM156.992 33.8697L154.727 30.5834C155.887 30.2448 156.537 29.4052 156.537 28.3467C156.537 26.9879 155.504 26.0445 153.579 26.0445C152.972 26.0445 152.483 26.0964 151.907 26.1709V33.8697H152.514V30.7098C152.77 30.7301 153.185 30.7527 153.461 30.7527C153.706 30.7527 153.928 30.7414 154.141 30.7098L156.27 33.8697H156.992ZM155.896 28.3783C155.896 29.5136 155.056 30.2448 153.491 30.2448C153.171 30.2448 152.777 30.2132 152.512 30.1816V26.6719C152.884 26.6087 153.246 26.5771 153.64 26.5771C155.119 26.5749 155.896 27.3378 155.896 28.3783ZM163.665 30.1704V30.7211H165.889V32.7682C165.273 33.2016 164.537 33.4476 163.676 33.4476C161.771 33.4476 160.177 32.0888 160.177 29.9898C160.177 27.9449 161.656 26.5027 163.581 26.5027C164.571 26.5139 165.411 26.8638 166.145 27.3942L166.464 26.927C165.655 26.3537 164.836 25.9723 163.581 25.9723C161.538 25.9723 159.527 27.498 159.527 29.9898C159.527 32.5041 161.538 33.9757 163.655 33.9757C164.806 33.9757 165.721 33.6259 166.484 33.021V30.1704H163.665Z" fill="#222222"/>
</svg>
