<svg width="30" height="30" viewBox="0 0 30 30" fill="none" xmlns="http://www.w3.org/2000/svg">
<path d="M24 15C24 16.78 23.4722 18.52 22.4833 20C21.4945 21.48 20.089 22.6335 18.4445 23.3148C16.8001 23.996 14.9905 24.1743 13.2448 23.8272C11.499 23.48 9.89532 22.623 8.63659 21.3645C7.37785 20.106 6.52056 18.5025 6.17312 16.7568C5.82568 15.011 6.00369 13.2015 6.68465 11.5569C7.3656 9.91235 8.51891 8.50664 9.99875 7.51752C11.4786 6.5284 13.2185 6.0003 14.9985 6C17.383 6.00834 19.6675 6.95918 21.3538 8.64515C23.04 10.3311 23.9913 12.6155 24 15ZM7.53584 15C7.53448 16.6838 8.10284 18.3185 9.14847 19.6382C10.0856 18.8546 11.4372 18.3632 13.1724 18.1638C11.8669 17.3652 10.9758 15.7372 10.9758 13.8635C10.9636 13.3325 11.0595 12.8046 11.2575 12.3118C11.4555 11.819 11.7516 11.3716 12.1278 10.9967C12.504 10.6217 12.9524 10.3272 13.4459 10.1308C13.9393 9.93444 14.4675 9.84038 14.9985 9.85433C15.5284 9.84167 16.0555 9.93671 16.5476 10.1337C17.0398 10.3307 17.4869 10.6255 17.8618 11.0004C18.2367 11.3752 18.5316 11.8222 18.7286 12.3143C18.9257 12.8065 19.0208 13.3335 19.0082 13.8635C19.0082 15.7372 18.1174 17.3652 16.8273 18.1638C18.5616 18.3632 19.9131 18.8703 20.8346 19.6533C21.583 18.721 22.0967 17.6227 22.3327 16.4508C22.5687 15.2788 22.5201 14.0673 22.191 12.9181C21.8618 11.7688 21.2617 10.7152 20.4411 9.8459C19.6204 8.97657 18.6032 8.31681 17.4748 7.92202C16.3464 7.52723 15.1397 7.40893 13.9561 7.57706C12.7725 7.74519 11.6465 8.19483 10.6726 8.88824C9.6988 9.58166 8.90553 10.4986 8.35945 11.5621C7.81336 12.6255 7.53039 13.8045 7.5343 15H7.53584ZM14.9985 22.4949C16.7808 22.4903 18.5026 21.8473 19.8517 20.6826C19.0067 19.8532 17.3944 19.469 14.9985 19.469C12.6026 19.469 10.9746 19.8532 10.1145 20.6519C11.4632 21.8413 13.2002 22.4968 14.9985 22.4949ZM17.594 13.8635C17.594 12.2969 16.5189 11.2369 14.9985 11.2369C13.4626 11.2369 12.4029 12.2963 12.4029 13.8635C12.4029 15.9061 13.5701 17.5652 14.9985 17.5652C16.4268 17.5652 17.595 15.9058 17.595 13.8635H17.594Z" fill="#333333"/>
</svg>
